# xmcd
#
# Track frame offsets:
#	150
#	10418
#	21982
#	34149
#	44915
#	55393
#	66890
#	79846
#	91208
#	102366
#	115171
#	124193
#	135271
#	143857
#	156008
#	166653
#	178374
#	190688
#	200848
#	214930
#
# Disc length: 3004
#
# Revision: 1
# Processed by: cddbd v1.5.1PL0 Copyright (c) Steve Scherf et al.
# Submitted via: dBpowerAMP V4.0
# Normalized: r0:TDELIM( - )
#
DISCID=240bba14
DTITLE=Various Artist - Roots of Rock n Roll Vol 8
DYEAR=1900
DGENRE=Rock n Roll 
TTITLE0=Bill Haley - Rock The Joint
TTITLE1=Archibald - Great Big Eyes
TTITLE2=Wally Mercer - Rock Around The Clock
TTITLE3=Hank Penny - Hadacilin Boogie
TTITLE4=Carter Sisters - Juke Box Blues
TTITLE5=Lloyd Price - Lawdy Miss Clawdy
TTITLE6=Ruth Brown - Daddy Daddy
TTITLE7=Merril Moore - Saddie Boogie
TTITLE8=Tommy Sosbee - All Nite Boogie
TTITLE9=Zuzu Bollin - Why don't you eat where you slept las night
TTITLE10=Peppermint Harris - I Cry for my Baby
TTITLE11=Red Fowley - Hoot owl Boogie
TTITLE12=Maddox Brothers and Rose - No Help Wanted
TTITLE13=Little Willie Littlefield - Kansas City
TTITLE14=Bob Newman - Sand Boogie
TTITLE15=Moon Mullican - Tokyo Boogie
TTITLE16=John Lee Hoker - Walkin The Boogir
TTITLE17=Arthur Smith - Indian Boogie
TTITLE18=Amos Milburn - Greyhound
TTITLE19=Fats Domino - Mardi Gras To New Orleans
EXTD=
EXTT0=
EXTT1=
EXTT2=
EXTT3=
EXTT4=
EXTT5=
EXTT6=
EXTT7=
EXTT8=
EXTT9=
EXTT10=
EXTT11=
EXTT12=
EXTT13=
EXTT14=
EXTT15=
EXTT16=
EXTT17=
EXTT18=
EXTT19=
PLAYORDER=
